<svg width="32" height="32" xmlns="http://www.w3.org/2000/svg">
 <title/>

 <g>
  <title>background</title>
  <rect fill="none" id="canvas_background" height="402" width="582" y="-1" x="-1"/>
 </g>
 <g>
  <title>Layer 1</title>
  <path stroke="#ffffff" id="svg_1" d="m28.648101,5.706751l-26,0a1,1 0 0 0 0,2l26,0a1,1 0 0 0 0,-2z"/>
  <path stroke="#ffffff" id="svg_2" d="m3,17l13,0a1,1 0 0 0 0,-2l-13,0a1,1 0 0 0 0,2z"/>
  <path stroke="#ffffff" id="svg_3" d="m25,24l-22,0a1,1 0 0 0 0,2l22,0a1,1 0 0 0 0,-2z"/>
  <path d="m2.481218,6.477469c0.05865,0 0.348717,0.029112 1.290296,0.1173c0.936131,0.087677 1.753657,0.117171 2.639242,0.17595c0.760774,0.050495 1.761266,0.008758 2.463292,0.05865c0.827347,0.058798 1.051344,0.146481 1.348946,0.17595c0.058365,0.005779 0.05865,0 0.1173,0c0.05865,0 0.059882,0.062486 -0.1173,0.1173c-0.407904,0.12619 -1.347572,0.20526 -2.287343,0.2346c-1.817259,0.056734 -2.75881,0.008116 -3.401689,-0.17595c-0.588669,-0.168545 -0.946198,-0.32665 -1.172997,-0.410549c-0.122999,-0.0455 -0.251777,-0.075828 -0.293249,-0.1173c-0.041472,-0.041472 -0.018738,-0.0934 0.17595,-0.17595c1.270926,-0.538885 2.755542,-0.439866 4.046837,-0.469199c1.114059,-0.025307 1.818144,0 2.228693,0c0.175949,0 0.171112,0.178144 -0.351899,0.586498c-0.808661,0.631384 -1.844642,1.16961 -2.697891,1.348946c-0.805588,0.169319 -1.114347,0.058649 -1.231646,0.058649l-0.1173,0l0,0" id="svg_4" fill-opacity="null" stroke-width="null" fill="none"/>
  <path d="m2.158644,6.598104c0,0 0,0 0.029325,0c0.05865,0 0.17595,0 0.293249,0c0.087975,0 0.1173,0 0.205274,0c0.029325,0 0.05865,0 0.146625,0c0.029325,0 0.05865,0 0.087975,0c0.029325,0 0.05865,0 0.087975,0c0.029325,0 0.05865,0 0.05865,0c0.029325,0 0.05865,0 0.087975,0c0.029325,0 0.05865,0 0.087975,0c0.029325,0 0.05865,0 0.087975,0c0.05865,0 0.087975,0 0.146624,0c0.05865,0 0.1173,0 0.17595,0c0,0 0.05865,0 0.1173,0c0.029325,0 0.1173,0 0.1173,0c0.05865,0 0.087975,0 0.1173,0c0,0 0,0.029325 0,0.05865c0,0.029325 0,0.05865 0,0.05865c0,0.029325 0.017147,0.064185 0,0.087975c-0.054222,0.07523 -0.090207,0.047428 -0.1173,0.05865c-0.038315,0.015871 -0.05865,0.05865 -0.1173,0.087975c0,0 -0.090207,0.018103 -0.1173,0.029325c-0.038315,0.01587 -0.10831,0.072104 -0.146625,0.087975c-0.054185,0.022444 -0.087975,0 -0.146625,0c-0.029325,0 -0.05865,0 -0.05865,0c-0.029325,0 -0.05865,0 -0.087975,0c-0.029325,0 -0.05865,0 -0.1173,0c-0.029325,0 -0.05865,0 -0.087975,0c-0.029325,0 -0.05865,0 -0.05865,0c-0.05865,0 -0.087975,0 -0.1173,0c0,0 -0.037914,0.020736 -0.05865,0c-0.020736,-0.020736 -0.002232,-0.047428 -0.029325,-0.05865c-0.038315,-0.01587 -0.029325,-0.05865 -0.05865,-0.05865c0,0 0.020736,-0.037914 0,-0.05865c-0.020736,-0.020736 -0.029325,-0.029325 -0.029325,-0.05865c0,0 0,-0.029325 0,-0.05865c0,-0.029325 0,-0.05865 0,-0.05865c0,-0.05865 0,-0.117299 0,-0.146624c0,-0.029325 0,-0.05865 0,-0.087975c0,0 -0.011222,-0.031557 0,-0.05865c0.01587,-0.038315 0.063029,-0.043233 0.087975,-0.05865c0.055779,-0.034473 0.078985,-0.101429 0.1173,-0.1173c0.027093,-0.011222 0.05865,0 0.087975,0c0.05865,0 0.087975,0 0.117299,0c0.05865,0 0.1173,0 0.146625,0c0.05865,0 0.146625,0 0.205274,0c0.05865,0 0.1173,0 0.146625,0c0.05865,0 0.1173,0 0.17595,0c0.087975,0 0.146625,0 0.175949,0c0.05865,0 0.1173,0 0.175949,0c0.05865,0 0.146625,0 0.17595,0c0.087975,0 0.1173,0 0.205275,0c0.029325,0 0.146624,0 0.234599,0c0.05865,0 0.1173,0 0.205274,0c0.05865,0 0.1173,0 0.17595,0c0.05865,0 0.087975,0 0.1173,0c0.029325,0 0.05865,0 0.087975,0c0,0 0,0 0,0.029325c0,0.029325 0,0.05865 0,0.087975c0,0.029325 0,0.05865 0,0.1173c0,0.029325 0.011222,0.060882 0,0.087975c-0.015871,0.038315 -0.05865,0.05865 -0.087975,0.087975c-0.029325,0.029325 -0.063114,0.036205 -0.1173,0.05865c-0.038315,0.015871 -0.047428,0.031558 -0.05865,0.05865c-0.015871,0.038315 -0.05865,0.05865 -0.087975,0.05865c-0.029325,0 -0.04966,0.013454 -0.087975,0.029325c-0.027093,0.011222 -0.029325,0 -0.05865,0c-0.029325,0 -0.05865,0 -0.087975,0c0,0 -0.020688,0.010152 -0.087975,0.05865c-0.053195,0.038341 -0.087975,0.029325 -0.146624,0.05865c0,0 -0.029325,0.029325 0,0.029325c0.029325,0 0.1173,-0.029325 0.234599,-0.05865c0.1173,-0.029325 0.262105,-0.073262 0.439874,-0.087975c0.146125,-0.012094 0.263924,-0.029325 0.381224,-0.029325c0.05865,0 0.17595,0 0.234599,0c0.087975,0 0.17595,0 0.263924,0c0.1173,0 0.263925,0 0.351899,0c0.05865,0 0.087975,0 0.1173,0c0.05865,0 0.087975,0 0.087975,0c0.029325,0 0.029325,0.029325 0.05865,0.029325c0.05865,0 0.117585,0.023546 0.17595,0.029325c0.148801,0.014734 0.231895,0.043877 0.351899,0.05865c0.203737,0.025081 0.410549,0 0.586498,0c0.146625,0 0.205274,0 0.234599,0c0.029325,0 0.05865,0 0.087975,0c0.029325,0 -0.025463,-0.037788 -0.146625,-0.087975c-0.085675,-0.035488 -0.177518,-0.045175 -0.2346,-0.05865c-0.063818,-0.015066 -0.083656,-0.034401 -0.1173,-0.05865c-0.053195,-0.038341 -0.1173,-0.029325 -0.17595,-0.029325c-0.029325,0 -0.086043,-0.004231 -0.146625,-0.029325c-0.085675,-0.035487 -0.175949,-0.029325 -0.205274,-0.029325c-0.05865,0 -0.1173,0 -0.1173,0c-0.029325,0 -0.1173,0 -0.146625,0c-0.05865,0 -0.087975,0 -0.146625,0c-0.029325,0 -0.1173,0 -0.17595,0c-0.05865,0 -0.1173,0 -0.146625,0c-0.05865,0 -0.087975,0 -0.1173,0c-0.05865,0 -0.087975,0 -0.1173,0c-0.087975,0 -0.1173,0 -0.17595,0c-0.029325,0 -0.087975,0 -0.146625,0c0,0 -0.029325,0 -0.05865,0c-0.029325,0 -0.058079,0.011559 0.05865,0c0.148801,-0.014734 0.41178,-0.04644 0.762448,-0.087975c0.383031,-0.045368 0.737213,-0.081804 1.143672,-0.146625c0.238801,-0.038083 0.49942,-0.051471 0.762447,-0.087975c0.176683,-0.024521 0.351234,-0.032123 0.469199,-0.05865c0.145885,-0.032805 0.380559,-0.032124 0.498523,-0.05865c0.145886,-0.032805 0.293249,-0.05865 0.439874,-0.05865c0.1173,0 0.263925,-0.029325 0.381225,-0.029325c0.117299,0 0.235478,0.014332 0.351898,0c0.120005,-0.014773 0.234599,-0.029325 0.351899,-0.029325c0.087975,0 0.175949,-0.029325 0.263925,-0.029325c0.117299,0 0.234599,0 0.410548,0c0.1173,0 0.205703,0.008669 0.293249,0c0.148801,-0.014734 0.205275,-0.05865 0.322574,-0.05865c0.1173,0 0.146625,0 0.2346,0c0.029325,0 0.058649,0 0.087975,0c0.029325,0 -0.00909,-0.019428 -0.087975,0.029325c-0.070556,0.043606 -0.155384,0.057141 -0.205275,0.087975c-0.055779,0.034473 -0.093164,0.068772 -0.234599,0.1173c-0.124047,0.042562 -0.17595,0.087975 -0.263925,0.087975c-0.05865,0 -0.118512,0.024845 -0.234599,0.05865c-0.089035,0.025927 -0.206032,0.049255 -0.263925,0.05865c-0.091536,0.014854 -0.2019,0.037369 -0.263924,0.05865c-0.141435,0.048527 -0.231894,0.073202 -0.351899,0.087975c-0.116421,0.014332 -0.234599,0 -0.322574,0c-0.087975,0 -0.172389,0.014471 -0.263925,0.029325c-0.086839,0.014092 -0.175949,0 -0.293249,0c-0.05865,0 -0.148896,-0.028184 -0.322574,0c-0.091536,0.014854 -0.206032,0.049255 -0.263925,0.05865c-0.091536,0.014854 -0.117299,0.029325 -0.205274,0.029325c-0.05865,0 -0.146625,0 -0.205275,0c-0.05865,0 -0.176609,-0.010749 -0.263925,0c-0.120004,0.014773 -0.175949,0.05865 -0.263924,0.05865c-0.087975,0 -0.17595,0 -0.2346,0c-0.087975,0 -0.10831,0.013454 -0.146625,0.029325c-0.027093,0.011222 -0.037914,0.008589 -0.05865,0.029325c-0.020736,0.020736 -0.029325,0 -0.05865,0c0,0 -0.034493,0.043584 0.029325,0.05865c0.114161,0.02695 0.263924,0.029325 0.498523,0.029325c0.410549,0 0.79348,0.044721 1.378271,0c0.384586,-0.029411 0.731905,-0.07329 0.997046,-0.087975c0.204961,-0.011352 0.436853,-0.045123 0.703798,-0.087975c0.290985,-0.046711 0.441656,-0.018789 0.645147,-0.05865c0.118655,-0.023243 0.292115,-0.065034 0.439874,-0.087975c0.262405,-0.04074 0.467022,-0.102566 0.615823,-0.1173c0.145911,-0.014448 0.350337,-0.014625 0.557174,-0.029325c0.292511,-0.020788 0.527848,0 0.703797,0c0.146625,0 0.263925,0 0.351899,0c0.05865,0 0.087975,0 0.1173,0c0.029325,0 0.029608,-0.009111 0.175949,0c0.235968,0.014691 0.612685,0.133486 1.026372,0.205274c0.437232,0.075874 0.82223,0.132111 1.290296,0.17595c0.235395,0.022047 0.410549,0.029325 0.527849,0.029325c0.087975,0 0.176706,-0.009395 0.234598,0c0.091536,0.014854 0.144449,0.043916 0.293249,0.05865c0.058365,0.005779 0.208412,0.02695 0.322575,0c0.191454,-0.045197 0.254908,-0.09343 0.293249,-0.146625c0.02425,-0.033643 0.058649,-0.05865 0.058649,-0.05865c0.029325,0 0.148565,-0.019423 0.322575,-0.05865c0.208263,-0.046948 0.322575,-0.087975 0.410549,-0.087975c0.058649,0 0.146624,-0.029325 0.263924,-0.029325c0.087975,0 0.264681,0.009395 0.322575,0c0.091536,-0.014854 0.175949,-0.029325 0.263924,-0.029325c0.087975,0 0.263924,0 0.439873,0c0.175951,0 0.322575,0 0.469198,0c0.1173,0 0.146626,0 0.175951,0c0.058649,0 0.234598,0.087975 0.410547,0.1173c0.3519,0.05865 0.645149,0.087975 1.290297,0.087975c0.586498,0 1.172997,0 1.847469,0c0.351898,0 0.498524,0 0.615824,0c0.029324,0 0,0 -0.1173,0c-0.175949,0 -0.352352,0.014577 -0.586498,0c-0.23597,-0.014691 -0.527849,-0.05865 -0.791773,-0.05865c-0.234598,0 -0.498524,0 -0.674473,0c-0.087975,0 -0.233936,0.002799 -0.351898,0.029325c-0.145885,0.032805 -0.299557,0.010581 -0.498524,0.087975c-0.061113,0.023772 -0.110537,0.038217 -0.146626,0.05865c-0.105215,0.059571 -0.141932,0.188117 -0.615822,0.293249c-0.028629,0.006351 -0.058651,0 -0.087975,0c-0.029325,0 -0.145565,-0.003398 -0.2346,-0.029325c-0.116089,-0.033805 -0.187111,-0.071656 -0.351898,-0.1173c-0.084782,-0.023483 -0.175949,-0.029325 -0.263926,-0.029325c-0.087975,0 -0.205273,0 -0.322573,0c-0.087975,0 -0.146626,0 -0.205275,0c-0.029325,0 -0.087975,0 -0.146626,0c-0.087975,0 -0.117298,0 -0.117298,0c-0.058651,0 -0.087975,0 -0.087975,0c-0.029325,0 -0.135481,0.019794 -0.293249,0.1173c-0.035278,0.021803 -0.060883,0.047428 -0.087976,0.05865c-0.038313,0.015871 -0.060881,0.018102 -0.087975,0.029325c-0.038313,0.015871 -0.058649,0.029325 -0.117298,0.029325c-0.058651,0 -0.175951,0 -0.263926,0c-0.087975,0 -0.1173,0 -0.175949,0c-0.029325,0 -0.058649,0 -0.087975,0c-0.087975,0 -0.322575,0 -0.498524,0c-0.175949,0 -0.293249,0 -0.410549,0c-0.117298,0 -0.181139,0.019201 -0.322573,-0.029325c-0.062025,-0.021281 -0.146626,-0.029325 -0.2346,-0.029325c-0.087975,0 -0.146624,0 -0.234598,0c-0.087975,0 -0.175951,0 -0.263926,0c-0.087975,0 -0.234598,0 -0.351898,0c-0.351898,0 -0.586498,0 -0.909072,0c-0.205275,0 -0.414107,-0.040704 -0.645148,0c-0.338033,0.059553 -1.027342,0.349355 -1.260971,0.439874c-0.147253,0.057053 -0.186101,0.037962 -0.234599,-0.029325c-0.038342,-0.053195 -0.097066,-0.097871 -0.17595,-0.146625c-0.070556,-0.043606 -0.078984,-0.072104 -0.117299,-0.087975c-0.027092,-0.011222 -0.037913,-0.008588 -0.05865,-0.029325c-0.020736,-0.020736 -0.030893,-0.045175 -0.087975,-0.05865c-0.063819,-0.015066 -0.1173,-0.05865 -0.146625,-0.05865c-0.029325,0 -0.05865,-0.029325 -0.087975,-0.029325c-0.029325,0 -0.029325,0 -0.05865,0c-0.05865,0 -0.087975,0 -0.146625,0c-0.05865,0 -0.05865,0 -0.087975,0c-0.029325,0 -0.078985,0.013454 -0.1173,0.029325c-0.081278,0.033666 -0.146625,0.029325 -0.175949,0.029325c-0.029325,0 -0.05865,0 -0.087975,0c0,0 -0.05865,0 -0.05865,0c-0.05865,0 -0.087975,0 -0.1173,0c0,0 0.000148,0.025167 0.05865,0.029325c0.206837,0.014699 0.61675,0.039183 1.43692,0.087975c0.352496,0.02097 0.527849,0.087975 0.645148,0.087975c0.029325,0 0.146625,0 0.175949,0c0.029325,0 0.032196,-0.024177 0.087976,-0.05865c0.024945,-0.015417 0.029325,-0.029325 0.029325,-0.029325c0,-0.029325 0.029325,-0.029325 0.029325,-0.029325c0.087976,-0.05865 0.239158,-0.060334 0.498524,-0.1173c0.271724,-0.05968 0.681821,-0.172771 0.879748,-0.234599c0.06259,-0.019552 0.239063,-0.065531 0.293247,-0.087975c0.038315,-0.015871 0.058651,-0.029325 0.087976,-0.029325c0,0 0.020334,-0.013454 0.058649,-0.029325c0.054184,-0.022444 0.078985,-0.013454 0.1173,-0.029325c0.027094,-0.011222 0.058649,-0.029325 0.146624,-0.029325c0.087975,0 0.125889,0.020736 0.146626,0c0.020735,-0.020736 0.030382,-0.018233 0.087975,-0.029325c0.155069,-0.029864 0.269415,-0.040812 0.469198,-0.087975c0.127638,-0.030131 0.245508,-0.069944 0.351898,-0.146625c0.033644,-0.024249 0.058651,-0.05865 0.087975,-0.087975c0,0 0.029325,0 0.058651,0c0.029325,0 0.087975,0 0.146624,0.029325c0.058651,0.029325 0.114595,0.073202 0.2346,0.087975c0.087315,0.010749 0.173773,0.014591 0.322575,0.029325c0.087547,0.008669 0.146624,0.029325 0.234598,0.029325c0.029325,0 0.087975,0 0.1173,0c0.087975,0 0.381224,0 0.909073,0c0.498522,0 0.821096,0 1.055696,0c0.029324,0 0.058649,0 0.146624,0c0.1173,0 0.352028,0.007807 0.586498,0c0.440607,-0.014671 0.703798,-0.05865 0.821098,-0.05865c0.146624,0 0.176388,0.007166 0.234598,0c0.120005,-0.014773 0.500671,-0.071112 1.026373,-0.146625c0.501081,-0.071976 0.853943,-0.088952 1.20232,-0.146625c0.119286,-0.019747 0.263924,-0.029325 0.469198,-0.029325c0.293249,0 0.586498,0 0.850424,0c0.087975,0 0.146624,0 0.205273,0c0.1173,0 0.410549,0 0.674473,0c0.263926,0 0.441193,0.021498 0.615824,0c0.120005,-0.014773 0.2346,-0.029325 0.351898,-0.029325c0.087976,0 0.146626,0 0.205275,0c0.029325,0 0.029325,0 0.058651,0c0.029324,0 0.087975,0 0.117298,0c0.029325,0 0.087976,0 0.087976,0c0.029324,0 0.117298,0 0.175949,0c0.029325,0 0.058649,0 0.058649,0c0.029325,0 0.058651,0 0.058651,0.029325c0,0.087975 0.043795,0.113738 0.058649,0.205274c0.004698,0.028946 0,0.05865 0,0.087975c0,0.029325 0,0.05865 0,0.087975c0,0.05865 0,0.05865 0,0.087975c0,0.029325 0,0.05865 0,0.087975c0,0 0,0.029325 0,0.05865c0,0.029325 0,0.05865 0,0.05865c-0.029325,0.029325 -0.029325,0.05865 -0.029325,0.1173c0,0 -0.008589,0.037914 -0.029324,0.05865c-0.020737,0.020736 -0.008589,0.037914 -0.029325,0.05865c-0.020737,0.020736 -0.058649,0.029325 -0.087975,0.029325c-0.029325,0 -0.058651,0 -0.058651,0c-0.029324,0 -0.058649,0 -0.087975,0c-0.029324,0 -0.029324,0 -0.058649,0c-0.029325,0 -0.058651,0 -0.087975,0c0,0 -0.049662,-0.013454 -0.087975,-0.029325c-0.027094,-0.011223 -0.058651,0 -0.1173,0c-0.029325,0 -0.029325,0 -0.058649,0c-0.058651,0 -0.087976,0 -0.146626,0c-0.058649,0 -0.1173,0 -0.146624,0c-0.029325,0 -0.029325,0 -0.058651,0c-0.029325,0 -0.058649,0 -0.087975,0c0,0 -0.05348,0.014259 -0.1173,0.029325c-0.057079,0.013474 -0.205275,0 -0.293249,0c-0.087975,0 -0.239269,-0.017908 -0.322573,-0.05865c-0.09498,-0.046453 -0.205275,-0.05865 -0.293249,-0.05865c-0.029325,0 -0.087975,0 -0.1173,0c-0.029325,0 -0.058651,0 -0.087975,0c-0.058651,0 -0.1173,0 -0.175949,0c0,0 -0.058651,0 -0.1173,0c0,0 -0.058651,0 -0.087975,0c-0.029325,0 -0.029325,0 -0.058651,0c-0.029324,0 -0.058649,0 -0.087975,0c0,0 -0.029324,0 -0.058649,0c-0.029325,0 -0.058651,0 -0.058651,0c-0.029324,0 -0.058649,0 -0.087975,0l-0.029324,0l0,0l-0.029325,0" id="svg_19" fill-opacity="null" stroke-width="null" stroke="#ffffff" fill="none"/>
  <path d="m16.967722,6.27553c-0.058649,0 -0.1173,0 -0.175949,0c0,0 -0.058649,0 -0.1173,0c-0.029324,0 -0.058649,0 -0.1173,0c-0.029324,0 -0.058649,0 -0.087975,0c-0.029324,0 -0.029324,0 -0.058649,0c-0.029325,0 -0.058651,0 -0.058651,-0.029325c0,0 0.054333,-0.005076 0.087976,-0.029325c0.053194,-0.038341 0.117298,-0.05865 0.175949,-0.05865c0.029325,0 0.058649,-0.029325 0.058649,-0.029325c0.029325,0 0.058651,0 0.087975,0c0.029325,0 0.09343,-0.009017 0.146626,0.029325c0.067287,0.048497 0.295839,0.139363 0.469198,0.205274c0.208754,0.079368 0.437401,0.188456 0.703798,0.2346c0.232956,0.040351 0.468075,0.124488 0.821096,0.175949c0.233953,0.034104 0.382116,0.052966 0.586498,0.087975c0.147383,0.025245 0.263924,0.029325 0.469198,0.029325c0.2346,0 0.381224,0 0.586498,0c0.205275,0 0.410751,0.00975 0.645149,0c0.352814,-0.014675 0.615822,-0.029325 0.879745,-0.029325c0.263926,0 0.586498,0 0.879747,0c0.293249,0 0.439875,0.029325 0.527849,0.029325c0,0 0.031557,-0.011221 0.058649,0c0.076632,0.031741 0.124802,0.105594 0.175949,0.146625c0.094315,0.075657 0.270651,0.09771 0.381226,0.146625c0.096693,0.042775 0.146624,0.05865 0.205273,0.05865c0,0 0.008589,0.008589 0.029325,0.029325c0.041473,0.041472 0.087975,0.029325 0.1173,0.029325c0.029325,0 0.087975,0 0.087975,0c0.029325,0 0.067238,0.020736 0.087975,0c0.020735,-0.020736 0.029325,-0.029325 0.058649,-0.05865c0.029325,-0.029325 0.087976,-0.029325 0.146626,-0.029325c0.087975,0 0.2346,0 0.293249,0c0.087975,0 0.146624,0 0.205275,0c0.058649,0 0.1173,0 0.175949,0c0.058649,0 0.087975,0 0.205275,0c0.087975,0 0.146624,0 0.234598,0c0.029325,0 0.003561,-0.014471 -0.087975,-0.029325c-0.086838,-0.014092 -0.175949,0 -0.322573,0c-0.087975,0 -0.205275,-0.029325 -0.263926,-0.029325c-0.058649,0 -0.087975,0 -0.117298,0c-0.029325,0 -0.058651,0 -0.146626,0c-0.029324,0 -0.11768,0.024628 -0.146624,0.029325c-0.091536,0.014854 -0.1173,0.029325 -0.205275,0.029325c-0.029325,0 -0.111347,0.007522 -0.146626,0.029325c-0.078884,0.048753 -0.113737,0.043796 -0.205275,0.05865c-0.057892,0.009394 -0.146624,0 -0.234598,0c0,0 -0.029325,0 -0.087975,0c-0.029325,0 -0.146626,0 -0.175949,0c-0.087976,0 -0.087976,0 -0.146626,0c-0.029325,0 -0.058649,0 -0.058649,0c-0.058651,0 -0.1173,0 -0.146626,0c-0.058649,0 -0.087975,0 -0.1173,0c-0.029324,0 -0.058649,0 -0.087975,0l0,0l-0.029324,0" id="svg_20" fill-opacity="null" stroke-width="null" stroke="#ffffff" fill="none"/>
  <polyline stroke-linecap="round" id="svg_21" points="10.692191945785435,16.09937427951533 10.692191945785435,16.09937427951533 10.692191945785435,16.09937427951533 " fill-opacity="null" stroke-width="null" stroke="#ffffff" fill="none"/>
  <path d="m2.539868,6.363505c0,0 0,0 -0.029325,0c-0.029325,0 -0.090207,0.018103 -0.1173,0.029325c-0.038315,0.015871 -0.031557,0.047428 -0.05865,0.05865c-0.038315,0.01587 -0.072104,0.020335 -0.087975,0.05865c-0.011222,0.027093 -0.008589,0.037914 -0.029325,0.05865c-0.020736,0.020736 0,0.029325 -0.029325,0.05865c-0.029325,0.029325 -0.05865,0.05865 -0.05865,0.087975c0,0 -0.029325,0 -0.029325,0.029325c0,0.05865 -0.020335,0.072104 -0.05865,0.087975c-0.027092,0.011222 -0.029325,0 -0.029325,0c0,-0.029325 0,-0.05865 0,-0.087975c0,-0.029325 0,-0.029325 0,-0.029325c0.05865,-0.029325 0.1173,-0.05865 0.1173,-0.05865c0.029325,0 0.05865,0 0.087975,0l0.029325,0l0,0" id="svg_22" fill-opacity="null" stroke-width="null" stroke="#ffffff" fill="none"/>
  <path d="m2.481218,15.95275c0,0 0.087975,0 0.17595,0c0.05865,0 0.146625,0 0.175949,0c0.1173,0 0.176707,-0.009395 0.234599,0c0.091536,0.014854 0.146625,0.029325 0.234599,0.029325c0.029325,0 0.087975,0 0.1173,0c0,0 0.029325,0 0.029325,0.029325c0,0.058649 0,0.087975 0,0.146624c0,0.058651 0.020735,0.06724 0,0.087975c-0.020736,0.020737 -0.087975,0 -0.146625,0c-0.029325,0 -0.087975,0 -0.1173,0c0,0 0,-0.029324 -0.029325,-0.029324c0,0 0,-0.029325 0,-0.058651c0,-0.029325 -0.014259,-0.05348 -0.029325,-0.1173c-0.013474,-0.05708 -0.013454,-0.049659 -0.029325,-0.087974c-0.011223,-0.027093 0,-0.05865 0,-0.087976c0,0 0,-0.029325 0,-0.058649c0,-0.029325 0,-0.05865 0.05865,-0.05865c0.029325,0 0.029325,0 0.05865,0c0.087975,0 0.1173,0 0.205274,0c0.029325,0 0.1173,0 0.17595,0c0.05865,0 0.177518,0.013475 0.234599,0c0.063819,-0.015066 0.087975,-0.029325 0.146625,-0.029325c0.029325,0 0.029325,0 0.087975,0c0.05865,0 0.17595,0 0.263925,0c0.029325,0 0.05865,0 0.087975,0c0.05865,0 0.067239,-0.05006 0.087975,-0.029325c0.020736,0.020736 -0.013454,0.078985 -0.029325,0.1173c-0.011222,0.027092 0,0.058649 0,0.058649c0,0.029325 -0.042779,0.020335 -0.05865,0.05865c-0.011222,0.027093 0,0.05865 0,0.05865c0,0.058649 -0.013454,0.108311 -0.029325,0.146624c-0.011223,0.027094 -0.008589,0.037914 -0.029325,0.058651c-0.020736,0.020737 0,0.029325 -0.05865,0.029325c0,0 -0.029325,0 -0.05865,0.029324c0,0 -0.008589,0.008589 -0.029325,0.029325c-0.020736,0.020737 0,0.058649 0,0.058649c0.029325,0 0.087975,0 0.146625,0c0.05865,0 0.1173,0 0.1173,0c0.029325,0 0.112132,-0.014259 0.175949,-0.029324c0.057081,-0.013475 0.05865,0 0.087975,0c0.05865,0 0.175949,0 0.293249,0c0.175949,0 0.263924,0 0.381224,0c0.029325,0 0.05865,0 0.05865,-0.058651c0,-0.029324 0.009112,-0.031677 0.029325,-0.1173c0.015066,-0.063818 0.029325,-0.117298 0.029325,-0.146624c0,0 0,-0.029325 0,-0.05865c0,-0.029325 0,-0.05865 0,-0.05865c0,-0.029325 -0.029325,-0.029325 -0.05865,-0.029325c-0.05865,0 -0.087975,0 -0.146624,-0.029325c-0.05865,-0.029325 -0.146625,-0.029325 -0.17595,-0.029325c-0.029325,0 0.029325,0 0.1173,0c0.1173,0 0.225609,0.04278 0.263924,0.05865c0.027093,0.011222 0.05865,0 0.087975,0c0.05865,0 0.14392,0.014551 0.263924,0.029325c0.116421,0.014332 0.2346,0 0.263924,0c0.029325,0 0.05865,0 0.087975,0c0,0 0.119375,-0.001814 0.351899,0.029325c0.331397,0.04438 0.584679,0.131912 0.762448,0.146624c0.087675,0.007256 0.1173,0 0.05865,0c-0.05865,0 -0.234599,-0.029324 -0.439873,-0.058649c-0.205275,-0.029325 -0.319013,-0.043796 -0.410549,-0.05865c-0.057892,-0.009395 -0.1173,0 -0.234599,0c-0.1173,0 -0.234599,0 -0.351899,0c-0.1173,0 -0.17595,0 -0.205275,0c-0.029325,0 -0.1173,0 -0.146625,0c-0.05865,0 -0.087975,0 -0.1173,0c-0.029325,0 -0.119653,-0.038438 -0.205274,-0.05865c-0.127636,-0.03013 -0.2346,-0.117299 -0.293249,-0.117299c-0.029325,0 -0.05865,-0.029325 -0.05865,-0.029325c-0.029325,0 -0.060882,0.011222 -0.087975,0c-0.038315,-0.01587 -0.029325,-0.058649 -0.029325,-0.058649c0,-0.029325 0.033925,0.046324 0.205275,0.117299c0.181743,0.07528 0.437942,0.180182 0.498523,0.205275c0.085675,0.035488 0.1173,0.029325 0.1173,0.029325c0,0.029324 0.093429,0.049633 0.146625,0.087975c0.067287,0.048498 0.105975,0.096684 0.17595,0.175949c0.043396,0.049158 0.076752,0.090206 0.087975,0.1173c0.015871,0.038313 0.05865,0.058649 0.05865,0.058649c0,0 0.029325,0 0.05865,0c0.029325,0 0.05865,0 0.1173,0c0.05865,0 0.17078,-0.014259 0.234599,-0.029325c0.057081,-0.013475 0.05865,0 0.1173,0c0.087975,0 0.263924,0 0.410549,0c0.1173,0 0.294818,-0.013475 0.351899,0c0.063819,0.015066 0.125889,0.050062 0.146625,0.029325c0.041471,-0.041471 0.013454,-0.108311 0.029325,-0.146624c0.011222,-0.027094 0,-0.058651 0,-0.087975c0,0 0,-0.029325 0,-0.058651c0,-0.029325 0,-0.058649 0,-0.058649c0,-0.029325 -0.018103,-0.060883 -0.029325,-0.087975c-0.015871,-0.038316 -0.029325,-0.029325 -0.029325,-0.029325c0,-0.029325 0.011222,-0.060883 0,-0.087975c-0.01587,-0.038315 -0.029325,-0.029325 0,-0.029325c0,0 0.020336,0.04278 0.05865,0.05865c0.027093,0.011222 0.05865,0 0.146625,0c0.029325,0 0.05865,0 0.087975,0c0.029325,0 0.029325,0.029325 0.05865,0.029325c0.029325,0 0.087975,0 0.1173,0c0.087975,0 0.2346,0 0.381224,0c0.146625,0 0.234599,0 0.263924,0c0.029325,0 0.05865,0 0.05865,0.029325c0,0 0,0.058649 0,0.087975c0,0.058649 0,0.1173 0,0.146626c0,0 -0.087975,0 -0.1173,0c-0.029325,0 -0.058649,0 -0.087975,0c-0.029325,0 -0.05865,0 -0.117299,0c-0.029325,0 -0.029325,0 -0.05865,0c-0.029325,0 0,0 0.05865,0c0.205274,0 0.645147,-0.029325 0.967722,-0.029325c0.146625,0 0.234599,0 0.293249,0c0,0 0.029325,0 0.058649,0c0.05865,0 0.05865,-0.029325 0.087976,-0.029325c0.029325,0 0.058649,0 0.087975,0c0,0 0.05865,0 0.087975,0c0.029325,0 0.029325,0 0.05865,0c0.029325,0 0.082806,-0.014259 0.146625,-0.029325c0.02854,-0.006737 0.079385,-0.008589 0.05865,-0.029324c-0.062208,-0.062208 -0.2346,-0.029325 -0.351899,-0.029325c-0.05865,0 -0.087975,0 -0.1173,-0.029325c0,0 -0.029325,0 -0.087975,0c-0.029325,0 -0.029325,0 -0.087975,0c-0.029325,0 -0.05865,-0.029324 -0.05865,-0.029324c-0.05865,0 -0.087975,-0.029325 -0.1173,-0.029325c-0.087975,0 -0.117299,0 -0.117299,0c-0.029325,0 -0.05865,0 -0.087975,0c-0.029325,0 -0.029325,0 -0.05865,0c-0.029325,0 -0.073262,0.144804 -0.087975,0.322575c-0.004837,0.058449 0.020737,0.125887 0,0.146624c-0.020737,0.020737 -0.064105,0.020308 -0.1173,0.058649c-0.033644,0.024248 -0.11213,0.07291 -0.175949,0.087976c-0.057081,0.013475 -0.087975,0 -0.146625,0c-0.029325,0 -0.05865,0 -0.087975,0c-0.029325,0 -0.037914,-0.008591 -0.05865,-0.029325c-0.020737,-0.020737 -0.029325,-0.029325 0,-0.029325c0.175949,0 0.469707,-0.020451 0.879747,0c0.294346,0.014681 0.410548,0.029325 0.439874,0.029325c0.058649,0 0.089489,0.018789 0.205274,0c0.274609,-0.044563 0.377664,-0.161095 0.469199,-0.175949c0.028946,-0.004698 0.050061,-0.037914 0.029325,-0.058651c-0.041471,-0.041471 -0.176131,0.007303 -0.322574,0c-0.294346,-0.014681 -0.526934,-0.043974 -0.879747,-0.058649c-0.205097,-0.008532 -0.349723,-0.043915 -0.498524,-0.058649c-0.204276,-0.020226 -0.289614,-0.039389 -0.439874,-0.087976c-0.115044,-0.037199 -0.260363,-0.043795 -0.351899,-0.058649c-0.086839,-0.014091 -0.1173,-0.029325 -0.17595,-0.029325c-0.029325,0 -0.061354,-0.014551 0.05865,-0.029324c0.203736,-0.02508 0.410549,-0.029325 0.498524,-0.029325c0.029325,0 0.058649,0 0.146625,0c0.146625,0 0.175949,0 0.234599,0c0.029325,0 0.058949,0.007257 0.146625,0c0.177769,-0.014712 0.258755,-0.102234 0.322574,-0.1173c0.028541,-0.006738 0.05865,0 0.05865,0c0,-0.029325 0.150496,-0.080799 0.263925,-0.146625c0.091449,-0.053069 0.205274,-0.087975 0.234599,-0.087975c0.058649,0 0.117299,0 0.293249,0c0.146625,0 0.234599,0 0.293249,0c0.058649,0 0.087975,0 0.117299,0c0.05865,0 0.147338,-0.014448 0.293249,0c0.148801,0.014734 0.322574,0.029325 0.498524,0.029325c0.117299,0 0.324793,-0.016626 0.527848,-0.05865c0.327416,-0.06776 0.527848,-0.087975 0.703797,-0.087975c0.05865,0 0.05865,0 0.087976,0c0.029325,0 0.058649,0 0.087975,0c0.029325,0 0.058649,0 0.087975,0c0.029325,0 0.142762,0.008463 0.263924,0.058649c0.17135,0.070975 0.205275,0.05865 0.322575,0.05865c0.146625,0 0.293249,0 0.410548,0c0.087975,0 0.146625,-0.029325 0.17595,-0.029325c0.029325,0 0.027393,-0.004231 0.087975,-0.029325c0.085674,-0.035487 0.263924,-0.029325 0.410548,-0.029325c0.205275,0 0.469199,0 0.703798,0c0.117299,0 0.234599,0 0.263924,0c0.05865,0 0.086156,0.014612 0.263925,0.029325c0.116899,0.009675 0.205275,0 0.293249,0c0.05865,0 0.114594,0.014552 0.234599,0.029325c0.029106,0.003583 0.058649,0 0.087975,0c0.029325,0 0.029325,0.029325 0.029325,0.029325c0,0.029325 0,0.05865 0,0.1173c0,0 0,0.05865 0,0.117299c0,0 0,0.029325 0,0.05865c0,0.029325 -0.029325,0.05865 -0.058651,0.05865c-0.029324,0 -0.008589,0.037914 -0.029324,0.058649c-0.020737,0.020737 -0.029325,0.029325 -0.029325,0.058651c0,0 -0.008589,0.008587 -0.029325,0.029324c-0.020737,0.020737 -0.029324,0.029325 -0.087975,0.029325c0,0 -0.029324,0 -0.058649,0c-0.029325,0 -0.05865,0 -0.087975,0c-0.029325,0 -0.037913,0.008589 -0.05865,0.029325c-0.020737,0.020737 -0.082807,0.014259 -0.146625,0.029325c-0.028541,0.006739 -0.05865,0 -0.1173,0c-0.029325,0 -0.05865,0 -0.117299,0c0,0 -0.029325,0 -0.087976,0c-0.058649,0 -0.146625,0 -0.293249,0c-0.087975,0 -0.087975,0 -0.146624,0c-0.05865,0 -0.146626,0 -0.17595,0c-0.05865,0 -0.087975,0 -0.1173,0c-0.058649,0 -0.084414,0.043795 -0.175949,0.058649c-0.115785,0.018789 -0.234599,0 -0.381224,0c-0.1173,0 -0.146625,0 -0.175949,0c-0.05865,0 -0.087976,0 -0.146625,0c-0.029325,0 -0.05865,0 -0.05865,0c-0.029325,0 -0.087975,0 -0.1173,0c-0.029325,0 -0.05865,0 -0.087975,0c-0.029325,0 -0.05865,0 -0.117299,0c-0.029325,0 -0.05865,0 -0.146625,0c-0.029325,0 -0.05865,-0.029325 -0.1173,-0.029325c-0.087975,0 -0.141457,-0.014259 -0.205275,-0.029324c-0.028541,-0.006737 -0.05865,0 -0.087975,0c-0.05865,0 -0.1173,0 -0.205275,0c-0.146625,0 -0.322574,-0.058651 -0.381224,-0.058651c-0.05865,0 -0.067238,-0.008589 -0.087975,-0.029325c-0.020736,-0.020735 -0.087975,0 -0.146625,0c-0.05865,0 -0.146625,0 -0.205275,0c-0.05865,0 -0.117299,0.029325 -0.205275,0.029325c-0.087975,0 -0.175949,0 -0.234599,0c-0.087975,0 -0.117299,0 -0.146625,0c-0.058649,0 -0.087975,0 -0.146625,0c-0.058649,0 -0.058649,0 -0.117299,0c-0.029325,0 -0.05865,0 -0.05865,0c-0.05865,0 -0.1173,0 -0.1173,0l-0.058649,0l-0.029325,0" id="svg_23" fill-opacity="null" stroke-width="null" stroke="#ffffff" fill="none"/>
  <path d="m2.686492,24.732628c0.05865,0 0.172388,0.014469 0.263924,0.029324c0.028946,0.004698 0.05865,0 0.087975,0c0.029325,0 0.020334,0.013454 0.05865,0.029325c0.027093,0.011223 0.029325,0.029325 0.05865,0.029325c0.029325,0 0.037914,-0.020737 0.05865,0c0.020735,0.020735 0,0.029324 0,0.058649c0,0.029325 0,0.058651 0,0.087975c0,0 0,0.029325 0,0.058651c0,0.029324 -0.029325,0.029324 -0.029325,0.058649c0,0 -0.029325,0 -0.05865,0c-0.029325,0 -0.060882,-0.011223 -0.087975,0c-0.038315,0.015871 -0.05865,0.029325 -0.087975,0.029325c0,0 0,0 0.087975,0c0.029325,0 0.087975,0 0.1173,0c0.029325,0 0.03379,0.022444 0.087975,0c0.038315,-0.015871 0.05865,-0.029325 0.05865,-0.029325c0.05865,0 0.115124,-0.014591 0.263924,-0.029325c0.175093,-0.017338 0.317405,-0.043583 0.381224,-0.058649c0.057081,-0.013475 0.087975,-0.029325 0.146624,-0.029325c0.029325,0 0.029325,0 0.087975,0c0.029325,0 0,0 -0.029325,0c-0.029325,0 -0.027756,0.013475 0.029325,0c0.063818,-0.015064 0.141476,-0.032194 0.175949,-0.087975c0.015417,-0.024946 0.001569,-0.015852 0.05865,-0.029325c0.063818,-0.015064 0.113738,-0.07312 0.205274,-0.087975c0.057893,-0.009396 0.087975,-0.029324 0.1173,-0.029324c0.029325,0 0.05865,0 0.029325,0c-0.05865,0 -0.1173,0 -0.234599,0c-0.05865,0 -0.17595,0 -0.234599,0c-0.05865,0 -0.146625,0 -0.17595,0c-0.087975,0 -0.1173,0 -0.175949,0c-0.029325,0 -0.05865,0 -0.05865,0c-0.029325,0 -0.05865,0 -0.087975,0c-0.029325,0 -0.078984,-0.013454 -0.1173,-0.029325c-0.027092,-0.011223 -0.029325,-0.029325 -0.05865,-0.029325c-0.029325,0 -0.037914,0.037914 -0.05865,0.058651c-0.020736,0.020737 -0.029325,0 -0.087975,0.029324c-0.1173,0.058649 -0.289688,0.07312 -0.381224,0.087975c-0.028946,0.004698 -0.087975,0 -0.1173,0c-0.029325,0 -0.029325,0.029325 -0.029325,0.058651c0,0.058649 0.00899,0.101429 -0.029325,0.1173c-0.027093,0.011223 -0.020335,0.042778 -0.05865,0.058649c-0.027092,0.011223 -0.078985,0.04278 -0.1173,0.058649c-0.027093,0.011221 -0.037914,-0.020737 -0.05865,0c-0.020736,0.020737 0,0.058651 0,0.058651c0,0.058649 0,0.087975 0,0.1173c0,0 -0.001509,0.008759 0.029325,0.058649c0.034474,0.05578 0.087975,0.029325 0.1173,0.029325c0,0 0.029325,0 0.05865,0c0.029325,0 0.05865,0 0.1173,0c0.05865,0 0.205274,-0.029325 0.527848,-0.029325c0.234599,0 0.351899,0 0.439874,0c0.029325,0 0.087975,0 0.17595,0c0.087975,0 0.17595,0 0.205274,0c0.029325,0 0.118179,0.014332 0.2346,0c0.120004,-0.014774 0.23517,-0.047091 0.351899,-0.058649c0.148801,-0.014734 0.355086,-0.044909 0.762448,-0.146626c0.207129,-0.05172 0.356363,-0.065529 0.410549,-0.087975c0.038315,-0.015871 0.060218,-0.015852 0.1173,-0.029325c0.063818,-0.015064 0.112131,-0.043583 0.17595,-0.058649c0.02854,-0.006737 0.05865,0 0.05865,0c0,-0.029325 0,-0.029325 -0.029325,-0.029325c-0.05865,0 -0.1173,0 -0.175949,0c-0.05865,0 -0.1173,0 -0.17595,0c-0.029325,0 -0.087975,0 -0.1173,0c-0.05865,0 -0.118435,0.015234 -0.205275,0.029325c-0.091536,0.014854 -0.1173,0.029325 -0.17595,0.029325c-0.05865,0 -0.1173,0 -0.146624,0c-0.029325,0 -0.087975,0 -0.1173,0c-0.029325,0 -0.029325,0 -0.087975,0c-0.05865,0 -0.05865,0 -0.1173,0c-0.05865,0 -0.125889,0.020737 -0.146625,0c-0.020736,-0.020737 0,-0.058651 0,-0.058651c0,-0.029324 0,-0.058649 0,-0.087975c0,-0.029325 0,-0.058649 0,-0.087975c0,-0.029325 0.029325,-0.029325 0.05865,-0.029325c0.05865,0 0.1173,0.029325 0.146625,0.029325c0.1173,0 0.175949,0 0.205274,0c0.029325,0 0.087975,0 0.1173,0c0.146625,0 0.234599,0 0.293249,0c0.029325,0 0.05865,0 0.087975,0c0.087975,0 0.20257,0.014551 0.322574,0.029325c0.087316,0.01075 0.146698,-0.002079 0.17595,0c0.206836,0.014698 0.444912,0.090067 0.674473,0.146624c0.243278,0.059937 0.322574,0.1173 0.381224,0.1173c0.029325,0 0.05865,0 0.05865,-0.058649c0,-0.058651 0,-0.087975 0,-0.1173c0,-0.029325 0,-0.058651 0,-0.058651c0,-0.029324 0,-0.058649 0,-0.087975c0,-0.029324 0,-0.029324 0,-0.029324c0,0.029324 0,0.058649 0,0.087975c0,0.029324 -0.020309,0.09343 -0.05865,0.146624c-0.024249,0.033644 -0.029325,0.058651 -0.029325,0.087975c0,0.029325 0,0.029325 0,0.029325c-0.05865,0 -0.092439,0.006882 -0.146625,0.029325c-0.038314,0.015869 -0.067239,0.008587 -0.087975,0.029324c-0.020736,0.020737 0,0.058651 0,0.058651c0,-0.087975 0.020308,-0.181404 0.05865,-0.2346c0.024249,-0.033642 0.05865,-0.058649 0.05865,-0.1173c0,-0.029324 0,-0.058649 0,-0.087975c0,-0.029324 0.05865,-0.029324 0.1173,0c0.05865,0.029325 0.1173,0.087975 0.205275,0.087975c0.05865,0 0.146625,0.029325 0.146625,0.029325c0.087975,0 0.1173,0 0.205274,0c0.029325,0 0.087975,0 0.146625,0c0.029325,0 0.087975,0 0.17595,0c0.117299,0 0.293248,0 0.410548,0c0.087975,0 0.1173,0 0.205275,0c0.05865,0 0.090207,-0.011223 0.117299,0c0.038316,0.015871 0.029325,0.058651 0.029325,0.087975c0,0 0,0.029325 0,0.058651c0,0.029324 0.011223,0.060881 0,0.087975c-0.015871,0.038315 -0.086043,0.062881 -0.146625,0.087975c-0.085674,0.035486 -0.319014,0.07312 -0.410549,0.087975c-0.086839,0.014091 -0.146625,0 -0.205274,0c-0.029325,0 -0.1173,0 -0.17595,0c-0.1173,0 -0.175949,0 -0.205274,0c-0.05865,0 -0.087975,0 -0.146625,0c-0.029325,0 -0.087975,0 -0.146625,0c-0.087975,0 -0.1173,0 -0.146625,0c-0.05865,0 -0.1173,0 -0.234599,0c-0.05865,0 -0.146625,0 -0.17595,0c-0.087975,0 -0.146625,0 -0.234599,0c-0.029325,0 -0.076753,-0.027092 -0.087975,0c-0.015871,0.038315 0.088354,0.053951 0.1173,0.058649c0.091537,0.014854 0.1173,0.029325 0.17595,0.029325c0.029325,0 0.119405,0.009052 0.263924,-0.029325c0.089627,-0.023802 0.174018,-0.062881 0.234599,-0.087975c0.085675,-0.035488 0.207058,-0.048113 0.410549,-0.087975c0.118654,-0.023243 0.175949,-0.029325 0.263924,-0.029325c0.029325,0 0.05915,0.012093 0.205275,0c0.177768,-0.014711 0.410549,-0.029324 0.586498,-0.029324c0.1173,0 0.175949,0 0.234599,0c0.205275,0 0.320398,-0.014591 0.469198,-0.029325c0.058365,-0.005779 0.1173,0 0.146625,0c0,0 0.070798,-0.075827 0.029325,-0.1173c-0.020737,-0.020737 -0.05865,0 -0.087975,0c-0.087976,0 -0.146625,0 -0.146625,0c-0.029325,0 -0.082827,0.026455 -0.1173,-0.029324c-0.015417,-0.024946 -0.05865,-0.029325 0,-0.029325c0.05865,0 0.1173,0 0.205275,0c0.05865,0 0.146625,0 0.263924,0c0.205275,0 0.351899,0 0.439874,0c0.05865,0 0.087975,0 0.146625,0c0,0 0.087975,0.029325 0.1173,0.029325c0.029325,0 0.087975,0.029324 0.117299,0.029324c0.05865,0 0.118511,0.024847 0.2346,0.058651c0.089035,0.025927 0.146625,0.058649 0.175949,0.058649c0.029325,0 0.05865,0 0.05865,0c0,0 0.020335,0.04278 0.05865,0.058649c0.027093,0.011221 0.058649,0.058651 0.058649,0.058651c0.029325,0 0.075829,0.017178 0.1173,0.058649c0.041472,0.041473 0.029325,0.058651 -0.05865,0.058651c-0.146625,0 -0.293249,0 -0.381224,0c-0.05865,0 -0.146625,0 -0.175949,0c-0.029325,0 -0.084414,0.014469 -0.17595,0.029324c-0.028946,0.004698 -0.065347,-0.033667 -0.146625,0c-0.038315,0.015871 -0.117299,0.029325 -0.234599,0.029325c-0.087975,0 -0.117299,0 -0.175949,0c-0.029325,0 -0.038438,-0.031679 -0.05865,-0.1173c-0.015065,-0.063818 -0.029325,-0.087975 -0.029325,-0.1173c0,-0.029324 -0.029325,-0.029324 -0.05865,-0.058649c0,0 -0.018103,-0.002232 -0.029325,-0.029325c-0.01587,-0.038313 -0.112151,-0.06152 -0.146625,-0.117298c-0.015417,-0.024946 -0.008589,-0.037916 -0.029325,-0.058651c-0.020737,-0.020737 -0.029325,-0.029325 -0.029325,-0.029325c0,-0.029324 -0.029325,-0.058649 -0.029325,-0.087975c0,-0.029324 0,-0.029324 0.05865,-0.029324c0.05865,0 0.175949,0 0.263925,0c0.087975,0 0.175949,0 0.351898,0c0.205275,0 0.381224,0 0.557174,0c0.117299,0 0.205275,0.029324 0.263924,0.029324c0.029325,0 0.033791,-0.022446 0.087976,0c0.07663,0.031742 0.067578,0.043085 0.175949,0.087975c0.038315,0.015871 0.108309,0.072105 0.146625,0.087976c0.054186,0.022444 0.087975,0.029324 0.087975,0.029324c0.029325,0 0.029325,0 0.05865,0c0.029325,0 0.036849,0.070934 0.175949,0.1173c0.08346,0.027821 0.200955,0.063725 0.234599,0.087975c0.053195,0.038342 0.1173,0.029325 0.1173,0.029325c0.029325,0 0.020335,0.013454 0.05865,0.029324c0.027093,0.011221 0.063114,0.006882 0.117299,0.029325c0.076631,0.031742 0.153321,0.054308 0.234599,0.087975c0.076631,0.031742 0.146625,0.087975 0.17595,0.087975c0.029325,0 0.087975,0.029324 0.087975,0c0,-0.087975 -0.146625,0 -0.205275,0c-0.087975,0 -0.117299,0 -0.146625,0c-0.117299,0 -0.203097,-0.043915 -0.351898,-0.058649c-0.087547,-0.008669 -0.205275,-0.029325 -0.263925,-0.029325c-0.05865,0 -0.087975,0 -0.146625,0c-0.029325,0 -0.029325,-0.029324 -0.087975,-0.029324c-0.029325,0 -0.05865,0 -0.087975,0c-0.05865,0 -0.087976,0 -0.087976,0c-0.029325,-0.029325 -0.058649,-0.029325 -0.087975,-0.029325c-0.029325,0 -0.007006,-0.041521 0.087975,-0.087975c0.083304,-0.040743 0.112131,-0.102234 0.17595,-0.1173c0.057081,-0.013475 0.038439,-0.045012 0.087975,-0.087975c0.070056,-0.060759 0.157534,-0.128593 0.263925,-0.205275c0.067286,-0.048496 0.087975,-0.058649 0.117299,-0.087975c0.029325,-0.029325 0.029325,-0.058649 0.05865,-0.058649c0.029325,0 0.05865,0 0.1173,0c0.029325,0 0.058649,0 0.117299,0c0,0 0.029325,0 0.05865,0c0.029325,0 0.05865,0 0.117299,0c0.087976,0 0.17595,0 0.263925,0c0.05865,0 0.146625,0 0.263925,0c0.058649,0 0.117299,0 0.146625,0c0.058649,0 0.087975,0 0.087975,0c0.058649,0 0.117299,0 0.175949,0c0.05865,0 0.175949,0.029324 0.263925,0.029324c0.029325,0 0.205274,0 0.351898,0c0.146625,0 0.263925,0 0.351899,0c0.029325,0 0.05865,0 0.087975,0c0.029325,0 0.061004,0.009113 0.146625,0.029325c0.063819,0.015066 0.205275,0.029325 0.381224,0.029325c0.1173,0 0.293249,0 0.410549,0c0.175949,0 0.293249,0 0.351899,0c0.058649,0 0.058649,0.029324 0.058649,0.117298c0,0.029325 0,0.1173 0,0.146626c0,0.058649 0,0.087975 0,0.087975c-0.058649,0.058649 -0.111012,0.073421 -0.234599,0.1173c-0.25478,0.090458 -0.617342,0.105885 -0.879746,0.146624c-0.295517,0.045881 -0.436314,0.102446 -0.527849,0.1173c-0.057892,0.009396 -0.117299,0 -0.146625,0c-0.029325,0 -0.087975,0 -0.175949,0c-0.029325,0 -0.105153,0.041471 -0.146625,0c-0.020737,-0.020737 -0.1173,-0.029325 -0.146625,-0.029325c-0.087975,0 -0.087975,0 -0.1173,0c-0.029325,0 -0.058649,0 -0.087975,0c-0.029325,0 -0.05865,-0.058649 -0.087975,-0.058649c-0.029325,0 -0.049661,-0.04278 -0.087975,-0.058649c-0.027092,-0.011221 -0.05865,0 -0.05865,0c-0.05865,-0.029325 -0.117299,-0.029325 -0.117299,-0.029325c-0.029325,0 -0.067239,-0.008589 -0.087976,-0.029325c-0.020737,-0.020737 0,-0.058649 0.029325,-0.058649c0.05865,0 0.23517,0.011559 0.351898,0c0.148801,-0.014734 0.295442,-0.048592 0.586498,-0.1173c0.325412,-0.076818 0.792373,-0.161436 0.967722,-0.175949c0.17777,-0.014713 0.349195,-0.073202 0.469199,-0.087975c0.174631,-0.021498 0.352347,-0.016216 0.645148,0c0.265141,0.014685 0.468248,0.062078 0.674473,0.1173c0.116795,0.031275 0.169069,0.033789 0.146624,0.087975c-0.015869,0.038313 -0.1173,0.058649 -0.146624,0.058649c-0.029325,0 -0.058651,0 -0.087975,0c-0.029325,0 -0.037914,-0.020737 -0.058651,0c-0.020737,0.020737 -0.056719,0.033556 -0.117298,0.058649c-0.17135,0.070974 -0.32704,0.12418 -0.381226,0.146626c-0.038315,0.015871 -0.058649,0.029325 -0.058649,0.029325c0,0 0.090206,0.011223 0.1173,0c0.038315,-0.015871 0.04966,-0.072105 0.087975,-0.087976c0.027094,-0.011223 0.057589,-0.003397 0.146624,-0.029324c0.116089,-0.033804 0.151089,-0.036207 0.205275,-0.058651c0.038315,-0.015869 0.04141,-0.028402 0.146626,-0.087975c0.072176,-0.040865 0.15283,-0.079592 0.234598,-0.146624c0.032072,-0.026293 0.04966,-0.04278 0.087975,-0.058651c0.027094,-0.011223 0.063116,-0.00688 0.1173,-0.029324c0.038315,-0.015871 0.146626,-0.087975 0.175949,-0.087975c0.1173,0 0.175951,-0.029325 0.2346,-0.029325c0.058649,0 0.087975,0 0.1173,0c0.029324,0 0.058649,0 0.1173,0c0.029324,0 0.088758,-0.006737 0.117298,0c0.06382,0.015066 0.087975,0.029325 0.146626,0.029325c0.029324,0 0.04966,0.042778 0.087975,0.058649c0.027094,0.011223 0.058649,0.029325 0.087975,0.029325c0,0 0.029325,0.029324 0.087975,0.029324c0.029325,0 0.029325,0.029325 0.029325,0.058651c0,0.029325 -0.038416,0.009897 -0.1173,0.058649c-0.035278,0.021803 -0.101429,0.020336 -0.1173,0.058651c-0.011221,0.027092 -0.064104,0.020306 -0.1173,0.058649c-0.033642,0.02425 -0.087975,0.029325 -0.117298,0.029325c0,0 -0.030895,0.015848 -0.087975,0.029324c-0.06382,0.015066 -0.087976,0.029325 -0.146626,0.029325c-0.029325,0 -0.087975,0 -0.1173,0c-0.029324,0 -0.058649,0 -0.1173,0c-0.029324,0 -0.058649,0 -0.117298,0c-0.029325,0 -0.058651,0 -0.087975,0c-0.029325,0 -0.058651,0 -0.1173,0c-0.058651,0 -0.087975,0 -0.1173,0c-0.029325,0 -0.029226,0.002419 0,0c0.177769,-0.014713 0.322575,-0.058649 0.498524,-0.087975c0.175949,-0.029325 0.29792,-0.105881 0.381224,-0.146624c0.094982,-0.046453 0.132553,-0.097467 0.175949,-0.146626c0.069975,-0.079264 0.173534,-0.099319 0.205275,-0.175949c0.011223,-0.027094 0.008589,-0.037914 0.029325,-0.058651c0.020735,-0.020735 0.037912,-0.008587 0.058649,-0.029324c0.020737,-0.020737 0.029325,-0.029325 0.029325,-0.029325c0.029325,-0.029325 0.087975,-0.029325 0.1173,-0.029325c0.029324,0 0.058649,0 0.087975,0c0.029324,0 0.030107,-0.006739 0.058649,0c0.063818,0.015066 0.076752,0.031557 0.087975,0.058651c0.015871,0.038315 0.082022,0.036846 0.1173,0.058649c0.078884,0.048754 0.205275,0.058651 0.263924,0.058651c0.087975,0 0.203154,0.006794 0.381224,0.058649c0.116089,0.033806 0.236706,0.049595 0.381224,0.087975c0.089626,0.023802 0.201717,-0.032883 0.263926,0.029325c0.020735,0.020735 0.029324,0.029324 0.087975,0.029324c0.058649,0 0.175001,0.003428 0.381224,0.058651c0.116795,0.031275 0.193127,-0.012146 0.234598,0.029325c0.020735,0.020735 0,0.029324 0,0.029324c0,0 -0.059406,0.019932 -0.117298,0.029325c-0.091537,0.014854 -0.190741,0.017418 -0.322575,0.087975c-0.036566,0.019569 -0.087975,0.029325 -0.146626,0.029325c-0.117298,0 -0.234598,0 -0.557173,0c-0.146624,0 -0.263924,0 -0.351898,0c-0.029325,0 -0.029552,-0.007288 -0.146626,0c-0.235968,0.01469 -0.436312,0.07312 -0.527847,0.087975c-0.057894,0.009396 -0.087975,0 -0.1173,0c-0.029325,0 -0.057512,0.014091 0.029325,0c0.183071,-0.029709 0.626719,-0.124668 0.879747,-0.263924c0.09263,-0.05098 0.175949,-0.087976 0.205273,-0.1173c0.029325,-0.029325 0.082024,-0.036848 0.1173,-0.058651c0.078882,-0.048754 0.202938,-0.03425 0.322575,-0.087975c0.14406,-0.064693 0.295923,-0.052656 0.498524,-0.146624c0.059484,-0.02759 0.1173,-0.029325 0.234598,-0.029325c0.1173,0 0.205275,0 0.263926,0c0.175949,0 0.265438,-0.018789 0.381224,0c0.091536,0.014854 0.231749,0.065224 0.293249,0.087975c0.113398,0.041948 0.149496,0.053501 0.205275,0.087975c0.024944,0.015417 0.029324,0.029325 0.029324,0.058651c0,0 -0.002232,0.018103 -0.029324,0.029324c-0.038315,0.015871 -0.06724,0.008589 -0.087976,0.029325c-0.020737,0.020737 0,0.058649 -0.058649,0.058649c-0.058649,0 -0.082827,-0.026455 -0.1173,0.029325c-0.015417,0.024946 -0.029324,0.058651 -0.058649,0.087975c-0.117302,0.117298 -0.352339,0.227434 -0.410549,0.2346c-0.120005,0.014772 -0.160078,0.04966 -0.175949,0.087975c-0.011223,0.027094 0,0.029325 -0.029325,0.029325c-0.029324,0 0.0343,-0.015614 0.293249,-0.1173c0.329817,-0.129517 0.620756,-0.251749 0.850422,-0.3519c0.120213,-0.052422 0.208467,-0.093815 0.293249,-0.117298c0.164789,-0.045643 0.325138,-0.169909 0.4692,-0.2346c0.119635,-0.053722 0.205273,-0.087975 0.234598,-0.087975c0,0 0,-0.029325 0.029325,-0.029325c0.029324,0 0.058649,0 0.087975,0c0,0 -0.011223,0.031557 0,0.058651c0.015871,0.038315 0.063725,0.025005 0.087975,0.058649c0.038342,0.053194 0.029325,0.087975 0.029325,0.1173c0,0 0.013454,0.020336 0.029324,0.058649c0.011223,0.027094 0,0.058651 0,0.058651c0,0.058649 0,0.087975 0,0.117298c0,0 0,0.058651 0,0.087976c0,0.029324 -0.018101,0.031555 -0.029324,0.058649c-0.015871,0.038315 -0.087975,0.058649 -0.1173,0.087975c0,0 -0.053501,-0.026453 -0.087975,0.029325c-0.015417,0.024944 -0.008589,0.037912 -0.029325,0.058649c-0.020737,0.020737 -0.087975,0.029325 -0.1173,0.029325c-0.058649,0 -0.087975,0.029324 -0.117298,0.029324c0,0 -0.029325,0 -0.058651,0c-0.029325,0 -0.058649,0 -0.087975,0c-0.029325,0 -0.087975,0 -0.146624,0c-0.058651,0 -0.087976,0 -0.1173,0c-0.029325,0 -0.058651,0 -0.058651,0c-0.029324,0 -0.058649,0 -0.087975,0c-0.029324,0 -0.029324,0 -0.058649,0c-0.058649,0 -0.146626,-0.029324 -0.263924,-0.029324c-0.1173,0 -0.175951,0 -0.175951,0c-0.029324,0 0.027163,-0.03686 0.1173,-0.058651c0.374908,-0.090635 0.702236,-0.161249 0.909073,-0.175949c0.146255,-0.010395 0.249445,-0.019512 0.322573,-0.058649c0.131836,-0.070557 0.179089,-0.031702 0.293249,-0.058651c0.06382,-0.015064 0.1173,-0.058649 0.205275,-0.087975c0.087975,-0.029324 0.170782,-0.043583 0.2346,-0.058649c0.028542,-0.006739 0.060881,-0.018103 0.087975,-0.029325c0.038315,-0.015869 0.09244,-0.006878 0.146626,-0.029324c0.038315,-0.015871 0.087975,-0.029325 0.146624,-0.029325c0.058649,0 0.1173,0 0.146624,0c0.029325,0 0.058651,0 0.087976,0c0,0 0,0 0,0.029325c0,0.029324 0.058649,0.058649 0.058649,0.087975c0,0 0.047428,0.002232 0.058649,0.029324c0.015871,0.038315 0.082827,0.002872 0.1173,0.058651c0.015417,0.024944 0.029325,0.029324 0.029325,0.029324c0.029325,0.029325 0.031557,0.04743 0.058649,0.058651c0.038315,0.015871 0.029325,0.058649 0.029325,0.058649c0,0 0,0.029325 0,0.058651c0,0.029324 -0.002232,0.047426 -0.029325,0.058649c-0.07663,0.03174 -0.060881,0.106077 -0.087975,0.1173c-0.038313,0.015869 -0.029324,0.058649 -0.058649,0.058649c-0.029325,0 -0.058651,0 -0.087975,0c-0.029325,0 -0.058651,0 -0.087975,0c-0.029325,0 -0.058651,0 -0.087976,0c-0.029324,0 -0.058649,0 -0.087975,0c-0.029324,0 -0.058649,0 -0.058649,0c-0.029325,0 -0.058649,0 -0.087975,0c-0.029325,0 -0.029325,0.029325 -0.058649,0.029325c-0.029325,0 -0.058651,0 -0.087976,0.029325c0,0 -0.029324,0 -0.058649,0c-0.029325,0 -0.04966,0.013454 -0.087975,0.029324c-0.054186,0.022444 -0.087975,0 -0.087975,0c-0.058651,0 -0.087975,0.029325 -0.146626,0.029325c-0.029324,0 -0.067238,0.008589 -0.087975,0.029325c-0.020735,0.020735 -0.108311,0.013454 -0.146624,0.029324c-0.108372,0.044889 -0.322741,-0.001612 -0.615824,0.029325c-0.26408,0.027874 -0.410549,0.029325 -0.527847,0.029325c-0.029325,0 -0.058651,0 -0.087975,0c-0.029325,0 -0.029325,0 -0.058651,0c-0.029325,0 -0.087975,0 -0.087975,0c-0.087975,0 -0.175949,0 -0.351898,0c-0.2346,0 -0.381224,0 -0.4692,0c-0.058649,0 -0.129383,-0.028402 -0.234598,-0.087975c-0.036089,-0.020433 -0.05348,-0.043585 -0.1173,-0.058651c-0.114162,-0.026951 -0.263924,-0.029324 -0.351898,-0.029324c-0.087975,0 -0.113739,-0.014471 -0.205275,-0.029325c-0.057894,-0.009396 -0.267387,-0.040333 -0.469198,-0.087975c-0.180506,-0.042612 -0.378519,-0.102526 -0.498524,-0.1173c-0.116421,-0.014332 -0.177464,0.018789 -0.293249,0c-0.091536,-0.014854 -0.205275,-0.029325 -0.322575,-0.029325c-0.087975,0 -0.205275,0 -0.234598,0c-0.087975,0 -0.087975,0 -0.205275,0c-0.1173,0 -0.2346,0 -0.322575,0c-0.087975,0 -0.146624,0 -0.205275,0c-0.1173,0 -0.293249,0 -0.410549,0c-0.117298,0 -0.175949,0 -0.234598,0c-0.058649,0 -0.1173,0 -0.146626,0c-0.087975,0 -0.263924,0 -0.410547,0c-0.087975,0 -0.146626,0 -0.175949,0c-0.029325,0 -0.087976,0 -0.087976,0l-0.029324,0l-0.029325,0l-0.058649,0" id="svg_24" fill-opacity="null" stroke-width="null" stroke="#ffffff" fill="none"/>
 </g>
</svg>